0
SECTION
2
HEADER
9
$INSUNITS
70
4
9
$ACADVER
1
AC1014
9
$HANDSEED
5
FFFF
0
ENDSEC
0
SECTION
2
TABLES
0
TABLE
2
VPORT
5
8
100
AcDbSymbolTable
0
ENDTAB
0
TABLE
2
LTYPE
5
5
100
AcDbSymbolTable
0
LTYPE
5
14
100
AcDbSymbolTableRecord
100
AcDbLinetypeTableRecord
2
BYBLOCK
70
0
0
LTYPE
5
15
100
AcDbSymbolTableRecord
100
AcDbLinetypeTableRecord
2
BYLAYER
70
0
0
ENDTAB
0
TABLE
2
LAYER
5
2
100
AcDbSymbolTable
70
2
0
LAYER
5
50
100
AcDbSymbolTableRecord
100
AcDbLayerTableRecord
2
0
70
0
6
CONTINUOUS
0
ENDTAB
0
TABLE
2
STYLE
5
3
100
AcDbSymbolTable
70
1
0
STYLE
5
11
100
AcDbSymbolTableRecord
100
AcDbTextStyleTableRecord
2
STANDARD
70
0
0
ENDTAB
0
TABLE
2
VIEW
5
6
100
AcDbSymbolTable
70
0
0
ENDTAB
0
TABLE
2
UCS
5
7
100
AcDbSymbolTable
70
0
0
ENDTAB
0
TABLE
2
APPID
5
9
100
AcDbSymbolTable
70
2
0
APPID
5
12
100
AcDbSymbolTableRecord
100
AcDbRegAppTableRecord
2
ACAD
70
0
0
ENDTAB
0
TABLE
2
DIMSTYLE
5
A
100
AcDbSymbolTable
70
1
0
ENDTAB
0
TABLE
2
BLOCK_RECORD
5
1
100
AcDbSymbolTable
70
1
0
BLOCK_RECORD
5
1F
100
AcDbSymbolTableRecord
100
AcDbBlockTableRecord
2
*MODEL_SPACE
0
BLOCK_RECORD
5
1B
100
AcDbSymbolTableRecord
100
AcDbBlockTableRecord
2
*PAPER_SPACE
0
ENDTAB
0
ENDSEC
0
SECTION
2
BLOCKS
0
BLOCK
5
20
100
AcDbEntity
100
AcDbBlockBegin
2
*MODEL_SPACE
0
ENDBLK
5
21
100
AcDbEntity
100
AcDbBlockEnd
0
BLOCK
5
1C
100
AcDbEntity
100
AcDbBlockBegin
2
*PAPER_SPACE
0
ENDBLK
5
1D
100
AcDbEntity
100
AcDbBlockEnd
0
ENDSEC
0
SECTION
2
ENTITIES
0
CIRCLE
5
100
100
AcDbEntity
8
0
100
AcDbCircle
10
170.03913037924912
20
97.253879584774296
30
0
40
1.4999999999999858
210
0
220
0
230
1
0
CIRCLE
5
101
100
AcDbEntity
8
0
100
AcDbCircle
10
170.0391304238461
20
77.253879286751072
30
0
40
1.4999999999999858
210
0
220
0
230
1
0
CIRCLE
5
102
100
AcDbEntity
8
0
100
AcDbCircle
10
169.54247950347664
20
51.687302825257895
30
0
40
1.5000000000000213
210
0
220
-0
230
1
0
CIRCLE
5
103
100
AcDbEntity
8
0
100
AcDbCircle
10
54.074967111112926
20
40.585339849314508
30
0
40
1.5000000000000036
210
0
220
-0
230
1
0
CIRCLE
5
104
100
AcDbEntity
8
0
100
AcDbCircle
10
169.54247950347656
20
121.6873028252576
30
0
40
1.5000000000000213
210
0
220
-0
230
1
0
LWPOLYLINE
5
105
100
AcDbEntity
8
0
100
AcDbPolyline
90
4
70
1
43
0.0
10
164.42671350737385
20
69.186226902511976
10
164.42671350737385
20
64.186226902511976
10
98.426713507373847
20
64.186226902511976
10
98.426713507373847
20
69.186226902511976
0
CIRCLE
5
106
100
AcDbEntity
8
0
100
AcDbCircle
10
84.666761468049373
20
115.18622686122472
30
0
40
1.5000000000000036
210
0
220
-0
230
1
0
CIRCLE
5
107
100
AcDbEntity
8
0
100
AcDbCircle
10
52.666761468049387
20
57.186226861224689
30
0
40
1.4999999999999947
210
0
220
-0
230
1
0
CIRCLE
5
108
100
AcDbEntity
8
0
100
AcDbCircle
10
52.666761468049387
20
115.18622686122472
30
0
40
1.4999999999999947
210
0
220
-0
230
1
0
CIRCLE
5
109
100
AcDbEntity
8
0
100
AcDbCircle
10
84.666761468049373
20
57.186226861224689
30
0
40
1.5000000000000036
210
0
220
-0
230
1
0
CIRCLE
5
110
100
AcDbEntity
8
0
100
AcDbCircle
10
54.076520492884356
20
132.80541011760351
30
0
40
1.4999999999999947
210
0
220
-0
230
1
0
LWPOLYLINE
5
111
100
AcDbEntity
8
0
100
AcDbPolyline
90
4
70
1
43
0.0
10
164.42671350737385
20
103.18622690251196
10
98.426713507373847
20
103.18622690251196
10
98.426713507373833
20
108.18622690251192
10
164.42671350737385
20
108.18622690251196
0
LWPOLYLINE
5
112
100
AcDbEntity
8
0
100
AcDbPolyline
90
12
70
1
43
0.0
10
130.18066378512097
20
141.18622691624142
42
0.41421356237309503
10
140.18066378512097
20
131.18622691624142
10
170.18066378512088
20
131.18622691624142
42
-0.41421356237309398
10
180.18066378512088
20
121.18622691624147
10
180.18066378512086
20
51.186226905092305
42
-0.41421356204654053
10
170.18066379627015
20
41.18622690509234
10
140.18066383529262
20
41.186226871644571
42
0.41421356237309709
10
130.18066384644183
20
31.186226860495339
10
50.180663852016693
20
31.186226771301335
42
-0.41421356253636915
10
40.180663840867382
20
41.186226765726701
10
40.180663790695768
20
131.18622691066679
42
-0.41421356253637281
10
50.180663790695789
20
141.18622691624142
0
ENDSEC
0
SECTION
2
OBJECTS
0
DICTIONARY
5
C
100
AcDbDictionary
3
ACAD_GROUP
350
D
3
ACAD_MLINESTYLE
350
17
0
DICTIONARY
5
D
100
AcDbDictionary
0
DICTIONARY
5
1A
330
C
100
AcDbDictionary
0
DICTIONARY
5
17
100
AcDbDictionary
0
ENDSEC
0
EOF
