0
SECTION
2
HEADER
9
$INSUNITS
70
4
9
$ACADVER
1
AC1014
9
$HANDSEED
5
FFFF
0
ENDSEC
0
SECTION
2
TABLES
0
TABLE
2
VPORT
5
8
100
AcDbSymbolTable
0
ENDTAB
0
TABLE
2
LTYPE
5
5
100
AcDbSymbolTable
0
LTYPE
5
14
100
AcDbSymbolTableRecord
100
AcDbLinetypeTableRecord
2
BYBLOCK
70
0
0
LTYPE
5
15
100
AcDbSymbolTableRecord
100
AcDbLinetypeTableRecord
2
BYLAYER
70
0
0
ENDTAB
0
TABLE
2
LAYER
5
2
100
AcDbSymbolTable
70
2
0
LAYER
5
50
100
AcDbSymbolTableRecord
100
AcDbLayerTableRecord
2
0
70
0
6
CONTINUOUS
0
ENDTAB
0
TABLE
2
STYLE
5
3
100
AcDbSymbolTable
70
1
0
STYLE
5
11
100
AcDbSymbolTableRecord
100
AcDbTextStyleTableRecord
2
STANDARD
70
0
0
ENDTAB
0
TABLE
2
VIEW
5
6
100
AcDbSymbolTable
70
0
0
ENDTAB
0
TABLE
2
UCS
5
7
100
AcDbSymbolTable
70
0
0
ENDTAB
0
TABLE
2
APPID
5
9
100
AcDbSymbolTable
70
2
0
APPID
5
12
100
AcDbSymbolTableRecord
100
AcDbRegAppTableRecord
2
ACAD
70
0
0
ENDTAB
0
TABLE
2
DIMSTYLE
5
A
100
AcDbSymbolTable
70
1
0
ENDTAB
0
TABLE
2
BLOCK_RECORD
5
1
100
AcDbSymbolTable
70
1
0
BLOCK_RECORD
5
1F
100
AcDbSymbolTableRecord
100
AcDbBlockTableRecord
2
*MODEL_SPACE
0
BLOCK_RECORD
5
1B
100
AcDbSymbolTableRecord
100
AcDbBlockTableRecord
2
*PAPER_SPACE
0
ENDTAB
0
ENDSEC
0
SECTION
2
BLOCKS
0
BLOCK
5
20
100
AcDbEntity
100
AcDbBlockBegin
2
*MODEL_SPACE
0
ENDBLK
5
21
100
AcDbEntity
100
AcDbBlockEnd
0
BLOCK
5
1C
100
AcDbEntity
100
AcDbBlockBegin
2
*PAPER_SPACE
0
ENDBLK
5
1D
100
AcDbEntity
100
AcDbBlockEnd
0
ENDSEC
0
SECTION
2
ENTITIES
0
CIRCLE
5
100
100
AcDbEntity
8
0
100
AcDbCircle
10
153.97355654123896
20
48.270169300943842
30
0
40
1.3749999999999929
210
0
220
0
230
1
0
CIRCLE
5
101
100
AcDbEntity
8
0
100
AcDbCircle
10
104.97355654123899
20
48.270169300944019
30
0
40
1.3749999999999929
210
0
220
0
230
1
0
CIRCLE
5
102
100
AcDbEntity
8
0
100
AcDbCircle
10
104.97355654123922
20
106.270169300944
30
0
40
1.3749999999999929
210
0
220
0
230
1
0
CIRCLE
5
103
100
AcDbEntity
8
0
100
AcDbCircle
10
153.97355654123919
20
106.27016930094382
30
0
40
1.3749999999999929
210
0
220
0
230
1
0
CIRCLE
5
104
100
AcDbEntity
8
0
100
AcDbCircle
10
170.03913037924912
20
97.253879584774296
30
0
40
1.4999999999999858
210
0
220
0
230
1
0
CIRCLE
5
105
100
AcDbEntity
8
0
100
AcDbCircle
10
88.5135114750301
20
108.8438792539728
30
0
40
1.5000000000000036
210
0
220
0
230
1
0
CIRCLE
5
106
100
AcDbEntity
8
0
100
AcDbCircle
10
-8.9832431942034123
20
15.753877918982564
30
0
40
1.1500000000000044
210
0
220
0
230
1
0
CIRCLE
5
107
100
AcDbEntity
8
0
100
AcDbCircle
10
51.93351147503013
20
108.84387917240488
30
0
40
1.5000000000000036
210
0
220
0
230
1
0
CIRCLE
5
108
100
AcDbEntity
8
0
100
AcDbCircle
10
-9.9608723915685182
20
69.753879037486001
30
0
40
1.5000000000000013
210
0
220
0
230
1
0
CIRCLE
5
109
100
AcDbEntity
8
0
100
AcDbCircle
10
53.933430794635619
20
132.85476736137855
30
0
40
1.5000000000000036
210
0
220
0
230
1
0
CIRCLE
5
110
100
AcDbEntity
8
0
100
AcDbCircle
10
53.934984382043972
20
40.634697093092846
30
0
40
1.4999999999999947
210
0
220
0
230
1
0
CIRCLE
5
111
100
AcDbEntity
8
0
100
AcDbCircle
10
51.933511571315023
20
65.663879172404847
30
0
40
1.5000000000000036
210
0
220
0
230
1
0
CIRCLE
5
112
100
AcDbEntity
8
0
100
AcDbCircle
10
-9.9608724678019236
20
104.75388042326784
30
0
40
1.5000000000000036
210
0
220
0
230
1
0
LWPOLYLINE
5
113
100
AcDbEntity
8
0
100
AcDbPolyline
90
4
70
1
43
0.0
10
40.039127626073196
20
62.25388026346927
10
40.039127514580684
20
112.25388026346927
10
37.039127514580692
20
112.25388025677971
10
37.039127626073196
20
62.253880256779723
0
CIRCLE
5
114
100
AcDbEntity
8
0
100
AcDbCircle
10
88.513511571315036
20
65.663879253972766
30
0
40
1.5000000000000036
210
0
220
0
230
1
0
CIRCLE
5
115
100
AcDbEntity
8
0
100
AcDbCircle
10
95.543468572360624
20
62.75387926964855
30
0
40
1.3749999999999929
210
0
220
0
230
1
0
CIRCLE
5
116
100
AcDbEntity
8
0
100
AcDbCircle
10
95.54346846309798
20
111.75387926964852
30
0
40
1.3749999999999929
210
0
220
0
230
1
0
CIRCLE
5
117
100
AcDbEntity
8
0
100
AcDbCircle
10
9.0167564869281573
20
158.75388019429403
30
0
40
1.1499999999999977
210
0
220
0
230
1
0
CIRCLE
5
118
100
AcDbEntity
8
0
100
AcDbCircle
10
153.54346846309798
20
111.75387939897982
30
0
40
1.3749999999999929
210
0
220
0
230
1
0
CIRCLE
5
119
100
AcDbEntity
8
0
100
AcDbCircle
10
169.40094336784472
20
51.752804642910576
30
0
40
1.5000000000000213
210
0
220
0
230
1
0
CIRCLE
5
120
100
AcDbEntity
8
0
100
AcDbCircle
10
20.350016098770585
20
87.253880308586176
30
0
40
1.5000000000000036
210
0
220
0
230
1
0
CIRCLE
5
121
100
AcDbEntity
8
0
100
AcDbCircle
10
169.40094321175525
20
121.75280464291038
30
0
40
1.5000000000000213
210
0
220
0
230
1
0
CIRCLE
5
122
100
AcDbEntity
8
0
100
AcDbCircle
10
9.0359305889670143
20
15.753877959162619
30
0
40
1.1500000000000021
210
0
220
0
230
1
0
CIRCLE
5
123
100
AcDbEntity
8
0
100
AcDbCircle
10
170.0391304238461
20
77.253879286751072
30
0
40
1.4999999999999858
210
0
220
0
230
1
0
CIRCLE
5
124
100
AcDbEntity
8
0
100
AcDbCircle
10
153.54346857236064
20
62.753879398979834
30
0
40
1.3749999999999929
210
0
220
0
230
1
0
CIRCLE
5
125
100
AcDbEntity
8
0
100
AcDbCircle
10
-8.983243513071848
20
158.75388015415672
30
0
40
1.1499999999999999
210
0
220
0
230
1
0
LWPOLYLINE
5
126
100
AcDbEntity
8
0
100
AcDbPolyline
90
18
70
1
43
0.0
10
20.039127737565714
20
12.253880218872268
42
0.41421356237309553
10
30.039127715267231
20
22.253880241170769
42
-0.41421356237309531
10
40.039127692968712
20
32.253880263469242
10
130.03912769296869
20
32.253880464155777
42
-0.41421356237309503
10
140.03912767067018
20
42.253880486454278
10
170.03912767067021
20
42.253880553349802
42
0.41421356237309453
10
180.0391276483717
20
52.253880575648282
10
180.0391274922822
20
122.25388058679754
42
0.41421356204653897
10
170.03912748113299
20
132.25388056449901
10
140.03912752015532
20
132.25388053105127
42
-0.41421356237309553
10
130.03912750900605
20
142.253880519902
10
40.039127509006072
20
142.25388041955875
42
-0.4142135571482331
10
30.039127497856818
20
152.25388023002151
42
0.41421356269964849
10
20.039127475558331
20
162.25388021887227
10
-14.960872596911816
20
162.2538801408275
42
0.41421356237309592
10
-19.960872585762562
20
157.25388012967827
10
-19.960872273583561
20
17.253880129678265
42
0.41421356237309331
10
-14.960872262434304
20
12.253880140827516
0
ENDSEC
0
SECTION
2
OBJECTS
0
DICTIONARY
5
C
100
AcDbDictionary
3
ACAD_GROUP
350
D
3
ACAD_MLINESTYLE
350
17
0
DICTIONARY
5
D
100
AcDbDictionary
0
DICTIONARY
5
1A
330
C
100
AcDbDictionary
0
DICTIONARY
5
17
100
AcDbDictionary
0
ENDSEC
0
EOF
